HIERARCHY
ROOT joint_0
{
	OFFSET 0.000000 0.000000 0.000000
	CHANNELS 6 Xposition Yposition Zposition Zrotation Yrotation Xrotation 
	JOINT joint_1
	{
		OFFSET 1.363060 -1.794630 0.839290
		CHANNELS 3 Zrotation Yrotation Xrotation
		JOINT joint_2
		{
			OFFSET 2.448110 -6.726130 0.000000
			CHANNELS 3 Zrotation Yrotation Xrotation
			JOINT joint_3
			{
				OFFSET 2.562200 -7.039590 0.000000
				CHANNELS 3 Zrotation Yrotation Xrotation
				JOINT joint_4
				{
					OFFSET 0.157640 -0.433110 2.322550
					CHANNELS 3 Zrotation Yrotation Xrotation
					End Site
					{
						OFFSET 0.000000 0.000000 0.000000
					}
				}
			}
		}
	}
	JOINT joint_5
	{
		OFFSET -1.305520 -1.794630 0.839290
		CHANNELS 3 Zrotation Yrotation Xrotation
		JOINT joint_6
		{
			OFFSET -2.542530 -6.985550 0.000000
			CHANNELS 3 Zrotation Yrotation Xrotation
			JOINT joint_7
			{
				OFFSET -2.568260 -7.056230 0.000000
				CHANNELS 3 Zrotation Yrotation Xrotation
				JOINT joint_8
				{
					OFFSET -0.164730 -0.452590 2.363150
					CHANNELS 3 Zrotation Yrotation Xrotation
					End Site
					{
						OFFSET 0.000000 0.000000 0.000000
					}
				}
			}
		}
	}
	JOINT joint_9
	{
		OFFSET 0.028270 2.035590 -0.193380
		CHANNELS 3 Zrotation Yrotation Xrotation
		JOINT joint_10
		{
			OFFSET 0.056720 2.048850 -0.042750
			CHANNELS 3 Zrotation Yrotation Xrotation
			JOINT joint_11
			{
				OFFSET -0.054170 1.746240 0.172020
				CHANNELS 3 Zrotation Yrotation Xrotation
				JOINT joint_12
				{
					OFFSET 0.104070 1.761360 -0.123970
					CHANNELS 3 Zrotation Yrotation Xrotation
					End Site
					{
						OFFSET 0.000000 0.000000 0.000000
					}
				}
			}
			JOINT joint_13
			{
				OFFSET 3.362410 1.200890 -0.311210
				CHANNELS 3 Zrotation Yrotation Xrotation
				JOINT joint_14
				{
					OFFSET 4.983000 -0.000000 -0.000000
					CHANNELS 3 Zrotation Yrotation Xrotation
					JOINT joint_15
					{
						OFFSET 3.483560 -0.000000 -0.000000
						CHANNELS 3 Zrotation Yrotation Xrotation
						JOINT joint_16
						{
							OFFSET 0.000000 0.000000 0.000000
							CHANNELS 3 Zrotation Yrotation Xrotation
							End Site
							{
								OFFSET 0.000000 0.000000 0.000000
							}
						}
					}
				}
			}
			JOINT joint_17
			{
				OFFSET -3.136600 1.374050 -0.404650
				CHANNELS 3 Zrotation Yrotation Xrotation
				JOINT joint_18
				{
					OFFSET -5.241900 -0.000000 -0.000000
					CHANNELS 3 Zrotation Yrotation Xrotation
					JOINT joint_19
					{
						OFFSET -3.444170 -0.000000 -0.000000
						CHANNELS 3 Zrotation Yrotation Xrotation
						JOINT joint_20
						{
							OFFSET 0.000000 0.000000 0.000000
							CHANNELS 3 Zrotation Yrotation Xrotation
							End Site
							{
								OFFSET 0.000000 0.000000 0.000000
							}
						}
					}
				}
			}
		}
	}
}
MOTION
Frames: 15
Frame Time: 0.031667
0.383414 16.863363 -1.810240 -1.405944 0.763194 0.967095 -19.503033 1.378080 -2.942817 -1.383934 -0.255411 4.267330 0.668115 0.683938 -1.534929 0.333507 -1.389833 -4.476554 23.411652 0.147073 0.402295 -0.528106 -3.276359 4.220854 1.189273 -1.585868 -7.582708 0.541373 -0.212264 0.055958 1.879464 0.017750 -7.395720 -0.122828 0.204206 10.427718 3.261054 0.132122 17.365262 2.355761 -1.303467 7.462785 -28.175917 -3.231410 8.592026 17.775823 -16.802895 -12.996221 5.185566 -0.204106 -2.758465 -6.803563 -0.002814 -0.034275 25.517921 3.670959 -1.921905 -30.787911 22.129171 -28.003210 -5.266344 -2.289711 -2.347486 6.757767 -0.026903 -0.006141 
0.383318 16.859610 -1.817252 -1.379972 0.747692 0.969901 -20.984211 2.286274 -2.495115 -1.999952 -0.922663 2.158169 0.806124 0.829190 -1.798118 0.554206 -1.056975 -3.631986 24.964821 0.155786 2.129088 -1.010490 -2.060542 2.113953 1.476270 -0.817517 -7.192312 0.590481 -0.487109 0.721558 1.202351 -0.124007 -9.139189 0.413279 -0.425563 12.645686 3.521704 0.556683 18.188165 3.171571 -1.276902 7.958613 -26.293090 -3.060889 6.758189 17.621864 -15.574110 -13.757678 6.059199 0.463255 -2.530908 -6.782895 -0.004191 -0.036806 24.839919 2.661280 -1.520548 -34.471309 21.681858 -30.906353 -6.440950 -2.743751 -1.790593 6.734695 -0.028548 -0.004575 
0.359751 16.856756 -1.922252 -1.278687 2.231196 1.264987 -22.064276 3.863885 -1.931386 -1.399195 -1.955086 1.314472 1.556252 0.304092 -1.295877 0.678756 -1.088483 -3.822293 25.032059 -0.689740 1.934725 -1.275129 -1.477224 0.178860 1.586285 0.138674 -6.564663 0.697132 -0.734758 1.303032 1.208726 0.123474 -10.971562 0.241081 -0.408458 14.249517 2.750407 0.355852 18.797174 3.916265 -1.431937 8.091865 -24.687085 -3.678664 5.377769 18.199123 -14.769838 -15.529834 6.963371 0.757917 -1.952995 -6.757924 -0.004725 -0.037948 23.354090 1.928836 -1.173603 -36.451282 21.322387 -32.946510 -7.442090 -3.024767 -1.830521 6.704696 -0.030889 -0.005435 
0.356616 16.846096 -1.948889 -0.875224 1.924792 0.723241 -22.648142 4.760859 -1.234917 -1.169886 -2.294632 -0.424304 1.313652 0.623088 -1.394916 0.759986 -1.232902 -4.350004 25.805674 -0.973918 2.156749 -1.980980 -0.266475 -0.822977 1.706449 0.430456 -6.267583 0.789669 -1.017594 2.010064 1.746060 0.019381 -11.146993 0.412426 -0.349634 14.431543 1.986627 0.768562 20.284948 4.754719 -1.747020 8.100176 -22.812173 -3.336796 4.293740 17.453664 -13.807767 -16.198168 7.846680 0.851205 -2.133206 -6.732557 -0.004080 -0.039122 21.708307 2.007857 -1.889417 -37.300479 20.978455 -34.564445 -8.815041 -3.217262 -1.764091 6.674884 -0.031261 -0.007070 
0.352688 16.855104 -1.909324 -1.206381 1.764283 0.913657 -23.760784 5.384650 -1.266434 -0.652898 -2.153281 -0.479180 1.106638 0.802974 -0.908014 0.812304 -1.312175 -4.688663 27.164607 -0.749778 1.271206 -1.978113 -0.075223 -1.675228 1.852146 0.817546 -6.160347 0.870766 -1.233346 2.517310 2.501481 0.179763 -11.458131 0.414631 -0.363532 15.260523 1.468980 -0.032439 20.790399 5.629866 -2.132085 8.100133 -21.299257 -3.392220 2.794682 16.966101 -13.170232 -17.047976 9.140227 0.794095 -1.799800 -6.708061 -0.003044 -0.037890 20.580796 2.196917 -1.456638 -37.171546 20.611274 -34.510391 -9.903055 -4.144548 -1.741958 6.647363 -0.030663 -0.008649 
0.353326 16.855556 -1.907733 -1.240121 1.724975 0.923689 -23.858800 5.900285 -1.883170 -0.986858 -2.117365 -1.923589 1.081647 0.558276 -0.739820 0.857506 -1.349084 -4.915127 27.850136 -1.304112 1.316823 -2.066157 -0.231826 -2.403682 2.195483 0.954210 -5.813410 0.959405 -1.334502 2.698762 1.725507 0.146830 -11.646447 -0.076926 -0.290893 15.716197 1.105383 0.152539 21.559890 6.255236 -2.486342 7.972900 -20.524584 -3.634157 1.436159 16.822920 -12.178846 -17.019383 9.526572 1.339712 -2.195358 -6.685566 -0.001464 -0.032991 19.558656 2.602976 -1.686205 -36.675141 20.373843 -34.966207 -10.808219 -4.558279 -1.574213 6.623357 -0.030165 -0.009857 
0.353497 16.856457 -1.906577 -1.280150 1.729442 0.936999 -24.567422 6.138507 -1.263521 -1.234051 -1.956691 -2.100047 0.593591 0.121406 -0.491807 0.931720 -1.243474 -4.759786 28.790268 -1.900333 1.958488 -2.324099 0.080615 -2.824921 2.103820 1.718464 -5.495221 1.067082 -1.448464 2.869189 1.609928 0.421059 -11.734717 0.017575 -0.274719 17.563399 1.763940 -0.056446 22.554096 6.810575 -2.718869 7.812450 -19.513502 -3.581790 0.885408 15.335477 -11.691331 -17.113679 10.088623 1.715914 -1.749697 -6.662774 0.000093 -0.025781 18.563561 2.609458 -1.824178 -36.217522 19.937544 -34.819334 -10.610467 -4.643707 -1.411127 6.597867 -0.030107 -0.010174 
0.354524 16.854355 -1.908769 -1.262170 1.675628 0.897137 -24.706527 6.027075 -1.533888 -1.534928 -1.162512 -1.362690 1.035053 0.118785 -0.292243 0.953867 -1.261539 -4.861404 29.553450 -1.741731 1.627634 -2.450625 0.227777 -2.876665 1.689366 1.663644 -5.508576 1.104831 -1.510347 3.027398 1.541084 0.381165 -12.082042 -0.145137 -0.140309 18.119694 1.584427 -0.412391 23.247700 7.287139 -2.857510 7.724462 -19.960062 -3.384791 0.693092 15.729441 -11.307433 -17.204849 10.187332 1.922227 -1.729419 -6.667760 -0.000181 -0.025735 18.956140 2.513713 -1.796756 -36.347695 19.977820 -34.693898 -11.162390 -4.945060 -1.492142 6.603257 -0.030825 -0.009994 
0.355215 16.853754 -1.910480 -1.258266 1.650171 0.888190 -24.662819 5.831104 -2.128201 -1.608982 -1.084197 -1.546934 0.847632 0.226624 -0.491047 0.961542 -1.271273 -4.934030 29.913483 -1.572539 1.480680 -2.577933 0.415365 -2.483009 1.685374 1.601303 -5.317427 1.125173 -1.546046 3.090977 1.391833 0.454232 -11.981270 0.240885 0.124454 18.264838 2.246802 -0.246519 23.162616 7.676676 -2.911989 7.601310 -20.565006 -3.015198 0.756522 15.863985 -11.247836 -16.412974 10.130520 2.357164 -1.810967 -6.672095 -0.000605 -0.028181 19.401912 2.336538 -1.927990 -37.272489 19.844459 -34.315967 -11.188409 -4.844626 -1.660491 6.608889 -0.031853 -0.010977 
0.354847 16.854204 -1.912898 -1.277922 1.673580 0.855423 -24.788954 5.704033 -2.457679 -1.592342 -1.057913 -0.995482 0.854411 0.185958 -0.587104 0.979444 -1.298625 -5.035168 29.987123 -1.347495 1.449959 -2.699046 0.218877 -2.662468 1.735943 1.538823 -5.262438 1.119085 -1.540310 3.050389 1.776074 0.559595 -11.854512 0.199505 0.104166 18.414048 2.238452 -0.127901 23.068501 7.868281 -2.933019 7.434554 -20.891500 -2.676181 0.694101 15.775662 -11.078888 -16.614264 9.974731 2.382328 -1.819675 -6.683228 -0.001290 -0.030857 19.850265 1.984269 -2.077352 -37.708918 19.576432 -34.170999 -11.048850 -4.710729 -1.494756 6.620596 -0.031583 -0.010116 
0.355467 16.859909 -1.895105 -1.494062 1.709578 1.028775 -24.685472 5.528624 -3.075107 -1.571687 -0.823914 -0.865496 0.886315 0.127088 -0.728370 0.992489 -1.295286 -5.032331 30.157973 -1.297324 1.178617 -2.636018 0.105830 -2.826652 1.788253 1.377417 -5.000918 1.109964 -1.542304 3.054330 1.914374 0.686288 -11.917662 0.444617 0.242791 18.187785 2.109022 -0.049228 23.556240 7.874589 -2.901168 7.250391 -21.029087 -2.464684 0.749207 15.486653 -10.636254 -16.259636 10.082269 2.358332 -1.919697 -6.686827 -0.001762 -0.032121 20.061505 1.801669 -2.202608 -37.880396 19.539858 -34.168431 -11.076592 -4.719299 -1.634878 6.624766 -0.031658 -0.009570 
0.355698 16.858559 -1.896486 -1.490068 1.658553 0.979278 -24.712289 5.628824 -2.997183 -1.592430 -0.858482 -0.847195 0.838805 0.195244 -0.560310 0.997542 -1.258878 -4.929490 30.508102 -1.328804 1.273492 -2.661453 0.108095 -2.865496 1.908590 1.382597 -4.937396 1.101322 -1.525120 3.019211 1.878058 0.640593 -12.030063 0.357200 0.225548 18.223710 2.109644 0.072686 23.645058 7.708688 -2.856645 7.079222 -21.010442 -2.386031 0.926244 15.224167 -10.509238 -16.150843 10.030572 2.409562 -1.963496 -6.683514 -0.002229 -0.033523 20.054948 1.734743 -2.261706 -38.124258 19.434094 -34.339042 -11.292782 -4.783657 -1.594396 6.622273 -0.031590 -0.008632 
0.356209 16.859009 -1.897598 -1.467705 1.612175 0.967268 -24.810107 5.728349 -3.223008 -1.483221 -0.920935 -0.801255 0.945517 0.191758 -0.707013 1.005742 -1.231989 -4.859150 30.754324 -1.297698 1.301582 -2.593661 0.035784 -3.024815 1.948304 1.433500 -4.923451 1.103553 -1.526674 3.017118 1.808625 0.733721 -11.982944 0.135126 0.205110 18.373241 1.986533 0.113785 23.853833 7.487292 -2.817336 7.061147 -20.975504 -2.447071 0.956394 14.890065 -10.283437 -16.287607 9.873313 2.505742 -1.954081 -6.683792 -0.002559 -0.034733 20.117305 1.735125 -2.294002 -38.230935 19.392627 -34.327202 -11.363422 -4.877070 -1.481010 6.622682 -0.031600 -0.008055 
0.356011 16.859159 -1.899114 -1.498228 1.643050 0.943425 -24.830891 5.764212 -3.208407 -1.427455 -0.901227 -0.735594 0.947220 0.201168 -0.720101 1.014851 -1.229199 -4.863016 30.783191 -1.315272 1.331949 -2.557628 -0.022833 -3.120941 1.926915 1.454083 -4.893685 1.105961 -1.515342 2.980010 1.808197 0.776050 -12.043993 0.090649 0.184096 18.370683 1.946672 0.146559 23.975602 7.234604 -2.804279 7.082939 -21.007877 -2.433952 0.960562 14.887261 -10.274286 -16.306957 9.841029 2.466280 -1.939041 -6.683527 -0.002787 -0.035101 20.169033 1.799824 -2.329978 -38.143034 19.381461 -34.428152 -11.379908 -4.901654 -1.465248 6.622303 -0.031716 -0.007769 
0.357096 16.857958 -1.897973 -1.507732 1.614423 0.943045 -24.773158 5.788926 -3.220873 -1.493376 -0.890790 -0.797170 0.911471 0.206906 -0.710497 1.023445 -1.236826 -4.896798 30.807244 -1.301030 1.359232 -2.467026 -0.023110 -3.148647 1.937761 1.445626 -4.862576 1.107967 -1.500239 2.932588 1.735848 0.786178 -12.062234 0.007476 0.203782 18.402092 1.969910 0.161574 24.021111 6.989916 -2.794469 7.123454 -21.052841 -2.393264 0.952900 14.803178 -10.294842 -16.334189 9.879679 2.457420 -1.961149 -6.683530 -0.003050 -0.035487 20.176802 1.838388 -2.384685 -38.048699 19.388028 -34.469164 -11.358181 -4.951355 -1.488179 6.621980 -0.031868 -0.007680 
